<svg xmlns="http://www.w3.org/2000/svg" width="32" height="30" viewBox="0 0 16 15">
  <defs>
    <style>
      .cls-1 {
        fill: #929292;
        fill-rule: evenodd;
      }
    </style>
  </defs>
  <path id="_200_icon-search.svg" data-name="200% icon-search.svg" class="cls-1" d="M1358.56,96.6l-4.56,4.548,0.85,0.852,2.16-.143,3.4-3.4a6.906,6.906,0,0,1-1.01-.843A6.647,6.647,0,0,1,1358.56,96.6Zm5.87-9.6a5.559,5.559,0,1,0,5.57,5.559A5.569,5.569,0,0,0,1364.43,87Zm0,9.287a3.728,3.728,0,1,1,3.74-3.728A3.729,3.729,0,0,1,1364.43,96.287Z" transform="translate(-1354 -87)"/>
</svg>
