<svg id="Layer_1" data-name="Layer 1" xmlns="http://www.w3.org/2000/svg" viewBox="0 0 167.28 74.12"><defs><style>.cls-1{fill:#00aeef;}.cls-2{fill:#ebebeb;}</style></defs><title>logo</title><path class="cls-1" d="M3.43.87h8.82a3.25,3.25,0,0,1,3.25,3.25v8.71a3.24,3.24,0,0,1-3.24,3.24H3.43A3.24,3.24,0,0,1,.18,12.83V4.11A3.24,3.24,0,0,1,3.43.87Z"/><path class="cls-1" d="M18.19,30h-9a3.32,3.32,0,0,0-3.32,3.32v46H18.19a3.32,3.32,0,0,0,3.32-3.32V33.31A3.32,3.32,0,0,0,18.19,30Z" transform="translate(-5.83 -5.14)"/><path class="cls-2" d="M70.91,5.14l-22.76.52c-14,.49-19.52,10.94-19.52,21.11l-.25,52.49H41.11a3.32,3.32,0,0,0,3.32-3.32l-.15-20.76a3.17,3.17,0,0,1,3.22-3.32h12a3.32,3.32,0,0,0,3.32-3.32V41a3.32,3.32,0,0,0-3.32-3.32H44.35V28.9c0-5.32,2.79-7.51,9.05-7.51l17.51,0A3.32,3.32,0,0,0,74.23,18V8.46A3.32,3.32,0,0,0,70.91,5.14Z" transform="translate(-5.83 -5.14)"/><path class="cls-2" d="M93.49,5.69h-9A3.32,3.32,0,0,0,81.14,9V79.25H93.49a3.32,3.32,0,0,0,3.32-3.32V9A3.32,3.32,0,0,0,93.49,5.69Z" transform="translate(-5.83 -5.14)"/><path class="cls-2" d="M146.16,26.77c0-10.16-5.56-20.62-19.52-21.11l-19.51-.52a3.32,3.32,0,0,0-3.32,3.32V18a3.32,3.32,0,0,0,3.32,3.32l14.26,0c6.26,0,9.05,2.19,9.05,7.51l-.26,50.37H143a3.32,3.32,0,0,0,3.32-3.32Z" transform="translate(-5.83 -5.14)"/><path class="cls-2" d="M169.76,5.15s-20.73.46-23.44.46c-2.35.19-2.67,1.75-1.14,3.15,5.34,4.57,6.09,12.05,6.09,12.41l18.49.15A3.35,3.35,0,0,0,173.11,18V8.5A3.35,3.35,0,0,0,169.76,5.15Z" transform="translate(-5.83 -5.14)"/></svg>