<svg xmlns="http://www.w3.org/2000/svg" width="10" height="8" viewBox="0 0 10 8">
  <defs>
    <style>
      .cls-1 {
        fill: #747475;
        fill-rule: evenodd;
      }
    </style>
  </defs>
  <path id="social-twitter.svg" class="cls-1" d="M530,2490.95a4.214,4.214,0,0,1-1.178.32,2.04,2.04,0,0,0,.9-1.12,4.169,4.169,0,0,1-1.3.49,2.057,2.057,0,0,0-3.548,1.38,2,2,0,0,0,.053.46,5.846,5.846,0,0,1-4.228-2.11,1.978,1.978,0,0,0-.278,1.01,2.024,2.024,0,0,0,.913,1.69,1.961,1.961,0,0,1-.929-0.26v0.03a2.031,2.031,0,0,0,1.645,1.98,1.928,1.928,0,0,1-.54.07,1.643,1.643,0,0,1-.386-0.04,2.05,2.05,0,0,0,1.916,1.41,4.165,4.165,0,0,1-2.548.86,3.963,3.963,0,0,1-.489-0.03,5.814,5.814,0,0,0,3.144.91,5.751,5.751,0,0,0,5.836-5.75c0-.08,0-0.17,0-0.26A4.127,4.127,0,0,0,530,2490.95Z" transform="translate(-520 -2490)"/>
</svg>
