<svg xmlns="http://www.w3.org/2000/svg" width="10" height="10" viewBox="0 0 10 10">
  <defs>
    <style>
      .cls-1 {
        fill: #747475;
        fill-rule: evenodd;
      }
    </style>
  </defs>
  <path id="social-instagram.svg" class="cls-1" d="M618.064,2489H611.93a1.937,1.937,0,0,0-1.931,1.94v2.04l0,4.09a1.931,1.931,0,0,0,1.934,1.93h6.134a1.937,1.937,0,0,0,1.931-1.94l0-4.09v-2.04A1.938,1.938,0,0,0,618.064,2489Zm0.555,1.15h0.221v1.7h-1.689l-0.007-1.69Zm-5.047,2.83a1.746,1.746,0,0,1,1.427-.74,1.76,1.76,0,1,1-1.759,1.76A1.719,1.719,0,0,1,613.572,2492.98Zm5.455,4.09a0.957,0.957,0,0,1-.958.95l-6.134.01a0.96,0.96,0,0,1-.958-0.96l0-4.09h1.493a2.669,2.669,0,0,0-.2,1.02,2.734,2.734,0,0,0,5.468,0,2.76,2.76,0,0,0-.2-1.03h1.493Z" transform="translate(-610 -2489)"/>
</svg>
