<svg xmlns="http://www.w3.org/2000/svg" width="11" height="8" viewBox="0 0 11 8">
  <defs>
    <style>
      .cls-1 {
        fill: #747475;
        fill-rule: evenodd;
      }
    </style>
  </defs>
  <path id="social-youtube.svg" class="cls-1" d="M650.927,2491.78a1.646,1.646,0,0,0-1.589-1.7c-1.252-.06-2.531-0.08-3.838-0.08s-2.587.02-3.838,0.08a1.647,1.647,0,0,0-1.589,1.7c-0.053.74-.075,1.48-0.073,2.22s0.02,1.48.073,2.23a1.644,1.644,0,0,0,1.589,1.69c1.25,0.06,2.532.08,3.838,0.08s2.586-.02,3.838-0.08a1.644,1.644,0,0,0,1.588-1.69c0.054-.75.076-1.49,0.074-2.23S650.98,2492.52,650.927,2491.78Zm-6.8,4.77v-5.1l3.437,2.55Z" transform="translate(-640 -2490)"/>
</svg>
