<svg xmlns="http://www.w3.org/2000/svg" width="8" height="10" viewBox="0 0 8 10">
  <defs>
    <style>
      .cls-1 {
        fill: #747475;
        fill-rule: evenodd;
      }
    </style>
  </defs>
  <path id="social-pintrest.svg" class="cls-1" d="M585.242,2489c-2.82,0-4.242,1.96-4.242,3.59a2.183,2.183,0,0,0,1.215,2.19,0.2,0.2,0,0,0,.3-0.14c0.028-.1.093-0.36,0.122-0.46a0.27,0.27,0,0,0-.086-0.32,1.629,1.629,0,0,1-.392-1.13,2.769,2.769,0,0,1,2.923-2.75,2.19,2.19,0,0,1,2.47,2.2c0,1.66-.757,3.06-1.882,3.06a0.9,0.9,0,0,1-.937-1.11,11.9,11.9,0,0,0,.524-2.04,0.777,0.777,0,0,0-.8-0.86,1.327,1.327,0,0,0-1.145,1.49,2.1,2.1,0,0,0,.189.9l-0.763,3.14a6.243,6.243,0,0,0-.018,2.18,0.079,0.079,0,0,0,.141.03,6.076,6.076,0,0,0,1.072-1.88c0.073-.25.417-1.58,0.417-1.58a1.722,1.722,0,0,0,1.45.72c1.909,0,3.2-1.69,3.2-3.94A3.5,3.5,0,0,0,585.242,2489Z" transform="translate(-581 -2489)"/>
</svg>
