<svg xmlns="http://www.w3.org/2000/svg" width="10" height="10" viewBox="0 0 10 10">
  <defs>
    <style>
      .cls-1 {
        fill: #747475;
        fill-rule: evenodd;
      }
    </style>
  </defs>
  <path id="social-google.svg" class="cls-1" d="M559.791,2493.06h-1.508v-1.68a0.218,0.218,0,0,0-.208-0.23h-0.429a0.218,0.218,0,0,0-.209.23v1.68h-1.508a0.218,0.218,0,0,0-.208.23v0.48a0.218,0.218,0,0,0,.208.23h1.508v1.68a0.218,0.218,0,0,0,.209.23h0.429a0.218,0.218,0,0,0,.208-0.23V2494h1.508a0.218,0.218,0,0,0,.208-0.23v-0.48A0.218,0.218,0,0,0,559.791,2493.06Zm-5.066,1.47a1.854,1.854,0,0,1-.611-0.73,0.766,0.766,0,0,1,.43-0.66,2.275,2.275,0,0,0,.828-1.72,2.492,2.492,0,0,0-.435-1.48h0.213a0.181,0.181,0,0,0,.122-0.04l0.593-.48a0.243,0.243,0,0,0,.076-0.26,0.218,0.218,0,0,0-.2-0.16h-2.652a2.463,2.463,0,0,0-.874.17,2.5,2.5,0,0,0-1.643,2.23,2.254,2.254,0,0,0,2.169,2.37,1.4,1.4,0,0,0-.037.32,1.232,1.232,0,0,0,.143.58h-0.034a2.852,2.852,0,0,0-2.655,1.61,1.908,1.908,0,0,0-.159.75,1.535,1.535,0,0,0,.166.7,2.363,2.363,0,0,0,1.54,1.11,4.4,4.4,0,0,0,1.217.16,3.491,3.491,0,0,0,1.085-.16A2.433,2.433,0,0,0,554.725,2494.53Zm-3.35,2.19a1.58,1.58,0,0,1,1.7-1.31h0.024a2.148,2.148,0,0,1,.569.1c0.062,0.05.122,0.09,0.179,0.14a1.646,1.646,0,0,1,.772.86,1.181,1.181,0,0,1,.027.25c0,0.87-.579,1.3-1.722,1.3A1.438,1.438,0,0,1,551.375,2496.72Zm0.821-6.56a0.671,0.671,0,0,1,.534-0.28h0.023A1.694,1.694,0,0,1,554,2491.5a1.735,1.735,0,0,1-.262,1.24,0.659,0.659,0,0,1-.539.27h-0.01a1.735,1.735,0,0,1-1.249-1.65A1.635,1.635,0,0,1,552.2,2490.16Z" transform="translate(-550 -2489)"/>
</svg>
